<svg xmlns="http://www.w3.org/2000/svg" xmlns:xlink="http://www.w3.org/1999/xlink" width="48" height="48" viewBox="0 0 48 48">
  <defs>
    <radialGradient id="a" data-name="Degradado sin nombre 54" cx="24" cy="40.25" r="21.86" gradientTransform="translate(0 29.96) scale(1 0.26)" gradientUnits="userSpaceOnUse">
      <stop offset="0.63"/>
      <stop offset="1" stop-opacity="0"/>
    </radialGradient>
    <linearGradient id="b" data-name="Degradado sin nombre 42" x1="-546.33" y1="339.6" x2="-531.33" y2="339.6" gradientTransform="matrix(2.73, 0, 0, -2.57, 1496.8, 908.5)" gradientUnits="userSpaceOnUse">
      <stop offset="0" stop-color="#729fcf"/>
      <stop offset="1" stop-color="#204a87"/>
    </linearGradient>
    <linearGradient id="c" data-name="Degradado sin nombre 43" x1="3.5" y1="-10.25" x2="44.5" y2="-10.25" gradientTransform="matrix(1, 0, 0, -1, 0, 27)" gradientUnits="userSpaceOnUse">
      <stop offset="0" stop-color="#cbdbed"/>
      <stop offset="1" stop-color="#204a87"/>
    </linearGradient>
    <linearGradient id="d" data-name="Degradado sin nombre 44" x1="4" y1="-7.25" x2="44" y2="-7.25" gradientTransform="matrix(1, 0, 0, -1, 0, 28)" gradientUnits="userSpaceOnUse">
      <stop offset="0" stop-color="#fff" stop-opacity="0.6"/>
      <stop offset="1" stop-color="#fff" stop-opacity="0.21"/>
    </linearGradient>
    <linearGradient id="e" data-name="Degradado sin nombre 45" x1="5" y1="-13.64" x2="24" y2="-13.64" gradientTransform="matrix(1, 0, 0, -1, 0, 20)" gradientUnits="userSpaceOnUse">
      <stop offset="0" stop-color="#fff" stop-opacity="0.8"/>
      <stop offset="1" stop-color="#fff" stop-opacity="0"/>
    </linearGradient>
    <linearGradient id="f" x1="-546.33" y1="339.6" x2="-531.33" y2="339.6" gradientTransform="matrix(2.73, 0, 0, -2.57, 1496.8, 896.5)" xlink:href="#b"/>
    <linearGradient id="g" x1="3.5" y1="-10.25" x2="44.5" y2="-10.25" gradientTransform="matrix(1, 0, 0, -1, 0, 15)" xlink:href="#c"/>
    <linearGradient id="h" x1="4" y1="-7.25" x2="44" y2="-7.25" gradientTransform="matrix(1, 0, 0, -1, 0, 16)" xlink:href="#d"/>
    <linearGradient id="i" x1="5" y1="-13.64" x2="24" y2="-13.64" gradientTransform="matrix(1, 0, 0, -1, 0, 8)" xlink:href="#e"/>
    <linearGradient id="j" x1="-546.33" y1="339.6" x2="-531.33" y2="339.6" gradientTransform="matrix(2.73, 0, 0, -2.57, 1496.8, 884.5)" xlink:href="#b"/>
    <linearGradient id="k" x1="3.5" y1="-10.25" x2="44.5" y2="-10.25" gradientTransform="matrix(1, 0, 0, -1, 0, 3)" xlink:href="#c"/>
    <linearGradient id="l" x1="4" y1="-7.25" x2="44" y2="-7.25" gradientTransform="matrix(1, 0, 0, -1, 0, 4)" xlink:href="#d"/>
    <linearGradient id="m" x1="5" y1="-13.64" x2="24" y2="-13.64" gradientTransform="matrix(1, 0, 0, -1, 0, -4)" xlink:href="#e"/>
  </defs>
  <title>DATABASE</title>
  <g>
    <g>
      <path d="M46,40.25c0,3-9.85,5.5-22,5.5S2,43.29,2,40.25s9.85-5.5,22-5.5S46,37.21,46,40.25Z" fill-opacity="0.8" fill="url(#a)"/>
      <path d="M24,26.25c-11.32,0-20.5,2.3-20.5,5.14v7.72c0,2.84,9.18,5.14,20.5,5.14S44.5,42,44.5,39.11V31.39C44.5,28.55,35.32,26.25,24,26.25Z" fill="url(#b)"/>
      <path d="M3.66,30.25a1.43,1.43,0,0,0-.16.66v8.18c0,2.84,9.18,5.16,20.5,5.16s20.5-2.32,20.5-5.16V30.91a1.43,1.43,0,0,0-.16-.66c-1.26,2.54-9.89,4.5-20.34,4.5S4.92,32.79,3.66,30.25Z" fill="url(#c)"/>
      <path d="M24,26.75a62,62,0,0,0-14.34,1.5,17.41,17.41,0,0,0-4.29,1.53C4.41,30.35,4,30.94,4,31.41v7.68c0,.47.41,1.06,1.37,1.63a17.41,17.41,0,0,0,4.29,1.53A62,62,0,0,0,24,43.75a62,62,0,0,0,14.34-1.5,17.16,17.16,0,0,0,4.28-1.53c1-.57,1.38-1.16,1.38-1.63V31.41c0-.47-.41-1.06-1.38-1.63a17.16,17.16,0,0,0-4.28-1.53A62,62,0,0,0,24,26.75Zm0,1a61.56,61.56,0,0,1,14.06,1.37A16,16,0,0,1,42,30.56a3.41,3.41,0,0,1,1,.81v7.75a3.11,3.11,0,0,1-1,.82,15.62,15.62,0,0,1-3.94,1.43A60.93,60.93,0,0,1,24,42.75,60.93,60.93,0,0,1,9.94,41.37,15.62,15.62,0,0,1,6,39.94a3.11,3.11,0,0,1-1-.82V31.37a3.41,3.41,0,0,1,1-.81,16,16,0,0,1,3.94-1.44A61.56,61.56,0,0,1,24,27.75Z" fill="url(#d)"/>
      <path d="M24,26.25c-11.32,0-20.5,2.3-20.5,5.14v7.72c0,2.84,9.18,5.14,20.5,5.14S44.5,42,44.5,39.11V31.39C44.5,28.55,35.32,26.25,24,26.25Z" fill="none" stroke="#193965" stroke-width="0.38"/>
      <path d="M5,31.53v1c3.05,1.88,10.41,3.22,19,3.22s16-1.34,19-3.22v-1c-3,1.88-10.41,3.22-19,3.22S8.05,33.41,5,31.53Z" fill="url(#e)"/>
      <path d="M24,14.25c-11.32,0-20.5,2.3-20.5,5.14v7.72c0,2.84,9.18,5.14,20.5,5.14S44.5,30,44.5,27.11V19.39C44.5,16.55,35.32,14.25,24,14.25Z" fill="url(#f)"/>
      <path d="M3.66,18.25a1.43,1.43,0,0,0-.16.66v8.18c0,2.84,9.18,5.16,20.5,5.16s20.5-2.32,20.5-5.16V18.91a1.43,1.43,0,0,0-.16-.66c-1.26,2.54-9.89,4.5-20.34,4.5S4.92,20.79,3.66,18.25Z" fill="url(#g)"/>
      <path d="M24,14.75a62,62,0,0,0-14.34,1.5,17.41,17.41,0,0,0-4.29,1.53C4.41,18.35,4,18.94,4,19.41v7.68c0,.47.41,1.06,1.37,1.63a17.41,17.41,0,0,0,4.29,1.53A62,62,0,0,0,24,31.75a62,62,0,0,0,14.34-1.5,17.16,17.16,0,0,0,4.28-1.53c1-.57,1.38-1.16,1.38-1.63V19.41c0-.47-.41-1.06-1.38-1.63a17.16,17.16,0,0,0-4.28-1.53A62,62,0,0,0,24,14.75Zm0,1a61.56,61.56,0,0,1,14.06,1.37A16,16,0,0,1,42,18.56a3.41,3.41,0,0,1,1,.81v7.75a3.11,3.11,0,0,1-1,.82,15.62,15.62,0,0,1-3.94,1.43A60.93,60.93,0,0,1,24,30.75,60.93,60.93,0,0,1,9.94,29.37,15.62,15.62,0,0,1,6,27.94a3.11,3.11,0,0,1-1-.82V19.37a3.41,3.41,0,0,1,1-.81,16,16,0,0,1,3.94-1.44A61.56,61.56,0,0,1,24,15.75Z" fill="url(#h)"/>
      <path d="M24,14.25c-11.32,0-20.5,2.3-20.5,5.14v7.72c0,2.84,9.18,5.14,20.5,5.14S44.5,30,44.5,27.11V19.39C44.5,16.55,35.32,14.25,24,14.25Z" fill="none" stroke="#193965" stroke-width="0.38"/>
      <path d="M5,19.53v1c3.05,1.88,10.41,3.22,19,3.22s16-1.34,19-3.22v-1c-3,1.88-10.41,3.22-19,3.22S8.05,21.41,5,19.53Z" fill="url(#i)"/>
      <path d="M24,2.25c-11.32,0-20.5,2.3-20.5,5.14v7.72c0,2.84,9.18,5.14,20.5,5.14S44.5,18,44.5,15.11V7.39C44.5,4.55,35.32,2.25,24,2.25Z" fill="url(#j)"/>
      <path d="M3.66,6.25a1.43,1.43,0,0,0-.16.66v8.18c0,2.84,9.18,5.16,20.5,5.16s20.5-2.32,20.5-5.16V6.91a1.43,1.43,0,0,0-.16-.66c-1.26,2.54-9.89,4.5-20.34,4.5S4.92,8.79,3.66,6.25Z" fill="url(#k)"/>
      <path d="M24,2.75A62,62,0,0,0,9.66,4.25,17.41,17.41,0,0,0,5.37,5.78C4.41,6.35,4,6.94,4,7.41v7.68c0,.47.41,1.06,1.37,1.63a17.41,17.41,0,0,0,4.29,1.53A62,62,0,0,0,24,19.75a62,62,0,0,0,14.34-1.5,17.16,17.16,0,0,0,4.28-1.53c1-.57,1.38-1.16,1.38-1.63V7.41c0-.47-.41-1.06-1.38-1.63a17.16,17.16,0,0,0-4.28-1.53A62,62,0,0,0,24,2.75Zm0,1A61.56,61.56,0,0,1,38.06,5.12,16,16,0,0,1,42,6.56a3.41,3.41,0,0,1,1,.81v7.75a3.11,3.11,0,0,1-1,.82,15.62,15.62,0,0,1-3.94,1.43A60.93,60.93,0,0,1,24,18.75,60.93,60.93,0,0,1,9.94,17.37,15.62,15.62,0,0,1,6,15.94a3.11,3.11,0,0,1-1-.82V7.37a3.41,3.41,0,0,1,1-.81A16,16,0,0,1,9.94,5.12,61.56,61.56,0,0,1,24,3.75Z" fill="url(#l)"/>
      <path d="M24,2.25c-11.32,0-20.5,2.3-20.5,5.14v7.72c0,2.84,9.18,5.14,20.5,5.14S44.5,18,44.5,15.11V7.39C44.5,4.55,35.32,2.25,24,2.25Z" fill="none" stroke="#193965" stroke-width="0.38"/>
      <path d="M5,7.53v1c3.05,1.88,10.41,3.22,19,3.22s16-1.34,19-3.22v-1c-3,1.88-10.41,3.22-19,3.22S8.05,9.41,5,7.53Z" fill="url(#m)"/>
    </g>
    <rect width="48" height="48" fill="none"/>
  </g>
</svg>
