<svg xmlns="http://www.w3.org/2000/svg" xmlns:xlink="http://www.w3.org/1999/xlink" width="500" height="200" viewBox="0 0 500 200">
  <defs>
    <linearGradient id="a" data-name="Degradado sin nombre 7" x1="1323.46" y1="-2457.28" x2="1323.46" y2="-2963.23" gradientTransform="matrix(0.06, 0, 0, -0.03, 2.98, 62.35)" gradientUnits="userSpaceOnUse">
      <stop offset="0" stop-opacity="0"/>
      <stop offset="0.5"/>
      <stop offset="1" stop-opacity="0"/>
    </linearGradient>
    <radialGradient id="b" data-name="Degradado sin nombre 3" cx="1832.61" cy="-2707.28" r="244.05" gradientTransform="matrix(0.06, 0, 0, -0.03, 2.99, 62.35)" gradientUnits="userSpaceOnUse">
      <stop offset="0"/>
      <stop offset="1" stop-opacity="0"/>
    </radialGradient>
    <radialGradient id="c" cx="-89.46" cy="-2707.28" r="244.05" gradientTransform="translate(46.51 62.35) rotate(180) scale(0.06 0.03)" xlink:href="#b"/>
    <radialGradient id="d" data-name="Degradado sin nombre 4" cx="105.08" cy="959.48" r="180.64" gradientTransform="matrix(0.96, 0, 0, -1.04, 0.04, 1126.46)" gradientUnits="userSpaceOnUse">
      <stop offset="0" stop-color="#fafafa"/>
      <stop offset="1" stop-color="#bbb"/>
    </radialGradient>
    <radialGradient id="e" data-name="Degradado sin nombre 5" cx="56.55" cy="1024.55" r="77.54" gradientTransform="matrix(0.97, 0, 0, -1.03, 3.39, 1118.07)" gradientUnits="userSpaceOnUse">
      <stop offset="0" stop-color="#a3a3a3"/>
      <stop offset="1" stop-color="#4c4c4c"/>
    </radialGradient>
    <radialGradient id="f" data-name="Degradado sin nombre 6" cx="55.18" cy="1017.3" r="78.31" gradientTransform="matrix(0.97, 0, 0, -1.03, 3.39, 1118.07)" gradientUnits="userSpaceOnUse">
      <stop offset="0" stop-color="#fff"/>
      <stop offset="1" stop-color="#f8f8f8"/>
    </radialGradient>
    <radialGradient id="g" data-name="Degradado sin nombre 8" cx="208.64" cy="610.41" r="10.95" gradientTransform="matrix(0.23, 0, 0, -0.23, 6.03, 253.25)" gradientUnits="userSpaceOnUse">
      <stop offset="0" stop-color="#f0f0f0"/>
      <stop offset="1" stop-color="#9a9a9a"/>
    </radialGradient>
    <radialGradient id="h" cx="208.64" cy="714.57" r="10.95" xlink:href="#g"/>
    <radialGradient id="i" data-name="Degradado sin nombre 9" cx="147.67" cy="877.87" r="29.95" gradientTransform="matrix(0.78, 0, 0, -0.78, -6.12, 761.09)" gradientUnits="userSpaceOnUse">
      <stop offset="0" stop-color="#fff"/>
      <stop offset="0.5" stop-color="#fff520" stop-opacity="0.89"/>
      <stop offset="1" stop-color="#fff300" stop-opacity="0"/>
    </radialGradient>
    <radialGradient id="j" cx="390.74" cy="674.81" r="35.71" gradientTransform="matrix(1.07, 0, 0, -0.26, -0.96, 317.76)" xlink:href="#b"/>
    <linearGradient id="k" data-name="Degradado sin nombre 2" x1="475.36" y1="887.97" x2="438.18" y2="1014.53" gradientTransform="matrix(0.92, 0, 0, -0.92, 2.45, 997.02)" gradientUnits="userSpaceOnUse">
      <stop offset="0" stop-color="#a40000"/>
      <stop offset="1" stop-color="#ff1717"/>
    </linearGradient>
    <linearGradient id="l" data-name="Degradado sin nombre 11" x1="507.05" y1="906.82" x2="457.93" y2="1035.21" gradientTransform="matrix(0.86, 0, 0, -0.86, 1.96, 926.63)" gradientUnits="userSpaceOnUse">
      <stop offset="0" stop-color="#ffe69b"/>
      <stop offset="1" stop-color="#fff"/>
    </linearGradient>
    <linearGradient id="m" data-name="Degradado sin nombre 10" x1="415.68" y1="961.68" x2="413.44" y2="999.48" gradientTransform="matrix(1, 0, 0, -1, -0.07, 1085.26)" gradientUnits="userSpaceOnUse">
      <stop offset="0" stop-color="#fffeff" stop-opacity="0.33"/>
      <stop offset="1" stop-color="#fffeff" stop-opacity="0.22"/>
    </linearGradient>
    <radialGradient id="n" data-name="Degradado sin nombre 54" cx="249" cy="133.85" r="45.53" gradientTransform="translate(0 99.65) scale(1 0.26)" gradientUnits="userSpaceOnUse">
      <stop offset="0.63"/>
      <stop offset="1" stop-opacity="0"/>
    </radialGradient>
    <linearGradient id="o" data-name="Degradado sin nombre 42" x1="121.42" y1="1021.97" x2="152.67" y2="1021.97" gradientTransform="matrix(2.73, 0, 0, -2.57, -125.6, 2751.36)" gradientUnits="userSpaceOnUse">
      <stop offset="0" stop-color="#729fcf"/>
      <stop offset="1" stop-color="#204a87"/>
    </linearGradient>
    <linearGradient id="p" data-name="Degradado sin nombre 43" x1="206.29" y1="931.4" x2="291.71" y2="931.4" gradientTransform="matrix(1, 0, 0, -1, 0, 1059)" gradientUnits="userSpaceOnUse">
      <stop offset="0" stop-color="#cbdbed"/>
      <stop offset="1" stop-color="#204a87"/>
    </linearGradient>
    <linearGradient id="q" data-name="Degradado sin nombre 44" x1="207.33" y1="936.56" x2="290.67" y2="936.56" gradientTransform="matrix(1, 0, 0, -1, 0, 1060)" gradientUnits="userSpaceOnUse">
      <stop offset="0" stop-color="#fff" stop-opacity="0.6"/>
      <stop offset="1" stop-color="#fff" stop-opacity="0.21"/>
    </linearGradient>
    <linearGradient id="r" data-name="Degradado sin nombre 45" x1="209.42" y1="931.92" x2="249" y2="931.92" gradientTransform="matrix(1, 0, 0, -1, 0, 1052)" gradientUnits="userSpaceOnUse">
      <stop offset="0" stop-color="#fff" stop-opacity="0.8"/>
      <stop offset="1" stop-color="#fff" stop-opacity="0"/>
    </linearGradient>
    <linearGradient id="s" x1="121.42" y1="1027.02" x2="152.67" y2="1027.02" gradientTransform="matrix(2.73, 0, 0, -2.57, -125.6, 2739.36)" xlink:href="#o"/>
    <linearGradient id="t" x1="206.29" y1="944.4" x2="291.71" y2="944.4" gradientTransform="matrix(1, 0, 0, -1, 0, 1047)" xlink:href="#p"/>
    <linearGradient id="u" x1="207.33" y1="949.56" x2="290.67" y2="949.56" gradientTransform="matrix(1, 0, 0, -1, 0, 1048)" xlink:href="#q"/>
    <linearGradient id="v" x1="209.42" y1="944.92" x2="249" y2="944.92" gradientTransform="matrix(1, 0, 0, -1, 0, 1040)" xlink:href="#r"/>
    <linearGradient id="w" x1="121.42" y1="1032.08" x2="152.67" y2="1032.08" gradientTransform="matrix(2.73, 0, 0, -2.57, -125.6, 2727.36)" xlink:href="#o"/>
    <linearGradient id="x" x1="206.29" y1="957.4" x2="291.71" y2="957.4" gradientTransform="matrix(1, 0, 0, -1, 0, 1035)" xlink:href="#p"/>
    <linearGradient id="y" x1="207.33" y1="962.56" x2="290.67" y2="962.56" gradientTransform="matrix(1, 0, 0, -1, 0, 1036)" xlink:href="#q"/>
    <linearGradient id="z" x1="209.42" y1="957.92" x2="249" y2="957.92" gradientTransform="matrix(1, 0, 0, -1, 0, 1028)" xlink:href="#r"/>
  </defs>
  <title>Splash</title>
  <rect width="500" height="200" fill="#fff"/>
  <text transform="translate(31.16 173.78)" font-size="16" font-family="SegoeUI, Segoe UI">Nueva entrada</text>
  <rect width="500" height="29" fill="#fff"/>
  <g>
    <g>
      <line x1="462" y1="8" x2="474" y2="20" fill="none" stroke="#000" stroke-miterlimit="10"/>
      <line x1="462" y1="20" x2="474" y2="8" fill="none" stroke="#000" stroke-miterlimit="10"/>
    </g>
    <g>
      <rect x="405.5" y="8.5" width="9" height="9" fill="#fff" stroke="#000" stroke-miterlimit="10"/>
      <rect x="403.5" y="10.5" width="9" height="9" fill="#fff" stroke="#000" stroke-miterlimit="10"/>
    </g>
    <line x1="345" y1="13.5" x2="357" y2="13.5" fill="none" stroke="#000" stroke-miterlimit="10"/>
  </g>
  <text transform="translate(27 19.75)" font-size="15" font-family="SegoeUI, Segoe UI">CMSA app</text>
  <rect x="474" width="26" height="29" fill="none"/>
  <text transform="translate(199.91 173.78)" font-size="16" font-family="SegoeUI, Segoe UI">Base de datos</text>
  <text transform="translate(401.02 173.78)" font-size="16" font-family="SegoeUI, Segoe UI">Salir</text>
  <g>
    <rect x="2" y="4" width="20" height="20"/>
    <rect x="2.63" y="4.63" width="3.75" height="4.38" fill="red"/>
    <rect x="2.63" y="9.63" width="3.75" height="13.75" fill="#fff"/>
    <rect x="7" y="4.63" width="14.38" height="4.38" fill="#fff"/>
    <rect x="7" y="9.63" width="11.25" height="9.38" fill="#fff"/>
    <rect x="18.88" y="9.63" width="2.5" height="3.13" fill="blue"/>
    <rect x="18.88" y="13.38" width="2.5" height="10" fill="#fff"/>
    <rect x="7" y="19.63" width="7.5" height="3.75" fill="#ff0"/>
    <rect x="15.13" y="19.63" width="3.13" height="3.75" fill="#00bf00"/>
  </g>
  <g>
    <g>
      <g>
        <rect x="52.27" y="134.26" width="60.43" height="14.81" opacity="0.4" fill="url(#a)" style="isolation: isolate"/>
        <path d="M112.69,134.26v14.81c6.45,0,15.58-3.32,15.58-7.4S121.08,134.26,112.69,134.26Z" transform="translate(0 0)" opacity="0.4" fill="url(#b)" style="isolation: isolate"/>
        <path d="M52.27,134.26v14.81c-6.45,0-15.58-3.32-15.58-7.4S43.88,134.26,52.27,134.26Z" transform="translate(0 0)" opacity="0.4" fill="url(#c)" style="isolation: isolate"/>
      </g>
      <g>
        <rect x="46.76" y="57.6" width="72.66" height="85.25" rx="2.39" stroke-linecap="round" stroke-linejoin="round" fill="url(#d)" stroke="url(#e)"/>
        <rect x="48.97" y="59.55" width="68.28" height="81.14" rx="0.31" fill="none" stroke-linecap="round" stroke-linejoin="round" stroke="url(#f)"/>
        <g>
          <g>
            <path d="M55.91,112.87a1.71,1.71,0,1,1-1.71-1.71A1.71,1.71,0,0,1,55.91,112.87Z" transform="translate(0 0)" fill="#fff"/>
            <path d="M55.91,89a1.71,1.71,0,1,1-1.71-1.71A1.72,1.72,0,0,1,55.91,89Z" transform="translate(0 0)" fill="#fff"/>
          </g>
          <path d="M55.17,112.32a1.71,1.71,0,1,1-1.71-1.71A1.71,1.71,0,0,1,55.17,112.32Z" transform="translate(0 0)" fill="url(#g)"/>
          <path d="M55.17,88.39a1.71,1.71,0,1,1-1.71-1.71A1.71,1.71,0,0,1,55.17,88.39Z" transform="translate(0 0)" fill="url(#h)"/>
        </g>
        <path d="M57,61.45v79" transform="translate(0 0)" fill="none" stroke="#000" stroke-opacity="0.02" stroke-width="0.99"/>
        <path d="M59,60.46v79.2" transform="translate(0 0)" fill="none" stroke="#fff" stroke-opacity="0.2"/>
      </g>
      <path d="M133,73.46A23.46,23.46,0,1,1,109.54,50,23.46,23.46,0,0,1,133,73.46Z" transform="translate(0 0)" fill="url(#i)"/>
    </g>
    <rect x="33" y="50" width="100" height="100" fill="none"/>
  </g>
  <g>
    <g>
      <path d="M455.58,140.62c0,5.18-17.11,9.38-38.23,9.38s-38.23-4.2-38.23-9.37h0c0-5.17,17.11-9.37,38.23-9.37s38.23,4.2,38.23,9.37Z" transform="translate(0 0)" opacity="0.6" fill="url(#j)" style="isolation: isolate"/>
      <g>
        <path d="M460.79,97.92a44.79,44.79,0,0,1-89.58,0h0a44.79,44.79,0,1,1,89.58,0Z" transform="translate(0 0)" stroke="#b20000" stroke-width="1.09" fill="url(#k)"/>
        <path d="M458.79,97.92A42.79,42.79,0,1,1,416,55.13,42.79,42.79,0,0,1,458.79,97.92Z" transform="translate(0 0)" fill="#c00" fill-opacity="0" stroke-width="1.17" opacity="0.35" stroke="url(#l)" style="isolation: isolate"/>
      </g>
      <g>
        <rect x="386.83" y="91.67" width="58.33" height="12.5" transform="translate(52.61 322.84) rotate(-45)" fill="#efefef"/>
        <rect x="409.75" y="68.75" width="12.5" height="58.33" transform="translate(52.61 322.84) rotate(-45)" fill="#efefef"/>
      </g>
      <path d="M456.48,95.42c0,22.63-21.64-13.1-39,.8-17,13.58-43,25.48-43,2.85,0-23.16,18.17-44.65,40.8-44.65A41.24,41.24,0,0,1,456.48,95.42Z" transform="translate(0 0)" fill="url(#m)"/>
    </g>
    <rect x="366" y="50" width="100" height="100" fill="none"/>
  </g>
  <g>
    <g>
      <path d="M294.83,133.85c0,6.33-20.52,11.46-45.83,11.46s-45.83-5.13-45.83-11.46S223.69,122.4,249,122.4,294.83,127.53,294.83,133.85Z" transform="translate(0 0)" fill-opacity="0.8" fill="url(#n)"/>
      <path d="M249,104.69c-23.59,0-42.71,4.79-42.71,10.71v16.07c0,5.92,19.12,10.72,42.71,10.72s42.71-4.8,42.71-10.72V115.4C291.71,109.48,272.58,104.69,249,104.69Z" transform="translate(0 0)" fill="url(#o)"/>
      <path d="M206.62,113a3.07,3.07,0,0,0-.33,1.37v17.06c0,5.91,19.12,10.74,42.71,10.74s42.71-4.83,42.71-10.74V114.39a3.07,3.07,0,0,0-.33-1.37c-2.62,5.29-20.6,9.38-42.38,9.38S209.24,118.31,206.62,113Z" transform="translate(0 0)" fill="url(#p)"/>
      <path d="M249,105.73c-11.72,0-22.29,1.22-29.88,3.12A36.08,36.08,0,0,0,210.2,112c-2,1.2-2.87,2.42-2.87,3.39v16c0,1,.86,2.19,2.87,3.38a35.67,35.67,0,0,0,8.92,3.19c7.59,1.91,18.16,3.13,29.88,3.13s22.29-1.22,29.88-3.13a35.67,35.67,0,0,0,8.92-3.19c2-1.19,2.87-2.42,2.87-3.38v-16c0-1-.86-2.19-2.87-3.39a36.08,36.08,0,0,0-8.92-3.19C271.29,107,260.72,105.73,249,105.73Zm0,2.08c11.54,0,22,1,29.3,2.87a32.68,32.68,0,0,1,8.2,3,6.91,6.91,0,0,1,2.08,1.69v16.15a6.91,6.91,0,0,1-2.08,1.69,33,33,0,0,1-8.2,3c-7.33,1.85-17.76,2.86-29.3,2.86s-22-1-29.3-2.86a33,33,0,0,1-8.2-3,6.91,6.91,0,0,1-2.08-1.69V115.36a6.91,6.91,0,0,1,2.08-1.69,32.68,32.68,0,0,1,8.2-3C227,108.83,237.46,107.81,249,107.81Z" transform="translate(0 0)" fill="url(#q)"/>
      <path d="M249,104.69c-23.59,0-42.71,4.79-42.71,10.71v16.07c0,5.92,19.12,10.72,42.71,10.72s42.71-4.8,42.71-10.72V115.4C291.71,109.48,272.58,104.69,249,104.69Z" transform="translate(0 0)" fill="none" stroke="#193965" stroke-width="0.38"/>
      <path d="M209.42,115.69v2.08c6.35,3.92,21.68,6.71,39.58,6.71s33.23-2.79,39.58-6.71v-2.08c-6.35,3.92-21.68,6.71-39.58,6.71S215.77,119.61,209.42,115.69Z" transform="translate(0 0)" fill="url(#r)"/>
      <path d="M249,79.69c-23.59,0-42.71,4.79-42.71,10.71v16.07c0,5.92,19.12,10.72,42.71,10.72s42.71-4.8,42.71-10.72V90.4C291.71,84.48,272.58,79.69,249,79.69Z" transform="translate(0 0)" fill="url(#s)"/>
      <path d="M206.62,88a3.07,3.07,0,0,0-.33,1.37v17.06c0,5.91,19.12,10.74,42.71,10.74s42.71-4.83,42.71-10.74V89.39a3.07,3.07,0,0,0-.33-1.37c-2.62,5.29-20.6,9.38-42.38,9.38S209.24,93.31,206.62,88Z" transform="translate(0 0)" fill="url(#t)"/>
      <path d="M249,80.73c-11.72,0-22.29,1.22-29.88,3.12A36.08,36.08,0,0,0,210.2,87c-2,1.2-2.87,2.42-2.87,3.39v16c0,1,.86,2.19,2.87,3.38a35.67,35.67,0,0,0,8.92,3.19c7.59,1.91,18.16,3.13,29.88,3.13s22.29-1.22,29.88-3.13a35.67,35.67,0,0,0,8.92-3.19c2-1.19,2.87-2.42,2.87-3.38v-16c0-1-.86-2.19-2.87-3.39a36.08,36.08,0,0,0-8.92-3.19C271.29,82,260.72,80.73,249,80.73Zm0,2.08c11.54,0,22,1,29.3,2.87a32.68,32.68,0,0,1,8.2,3,6.91,6.91,0,0,1,2.08,1.69v16.15a6.91,6.91,0,0,1-2.08,1.69,33,33,0,0,1-8.2,3c-7.33,1.85-17.76,2.86-29.3,2.86s-22-1-29.3-2.86a33,33,0,0,1-8.2-3,6.91,6.91,0,0,1-2.08-1.69V90.36a6.91,6.91,0,0,1,2.08-1.69,32.68,32.68,0,0,1,8.2-3C227,83.83,237.46,82.81,249,82.81Z" transform="translate(0 0)" fill="url(#u)"/>
      <path d="M249,79.69c-23.59,0-42.71,4.79-42.71,10.71v16.07c0,5.92,19.12,10.72,42.71,10.72s42.71-4.8,42.71-10.72V90.4C291.71,84.48,272.58,79.69,249,79.69Z" transform="translate(0 0)" fill="none" stroke="#193965" stroke-width="0.38"/>
      <path d="M209.42,90.69v2.08c6.35,3.92,21.68,6.71,39.58,6.71s33.23-2.79,39.58-6.71V90.69C282.23,94.61,266.9,97.4,249,97.4S215.77,94.61,209.42,90.69Z" transform="translate(0 0)" fill="url(#v)"/>
      <path d="M249,54.69c-23.59,0-42.71,4.79-42.71,10.71V81.47c0,5.92,19.12,10.72,42.71,10.72s42.71-4.8,42.71-10.72V65.4C291.71,59.48,272.58,54.69,249,54.69Z" transform="translate(0 0)" fill="url(#w)"/>
      <path d="M206.62,63a3.07,3.07,0,0,0-.33,1.37V81.45c0,5.91,19.12,10.74,42.71,10.74s42.71-4.83,42.71-10.74V64.39a3.07,3.07,0,0,0-.33-1.37c-2.62,5.29-20.6,9.38-42.38,9.38S209.24,68.31,206.62,63Z" transform="translate(0 0)" fill="url(#x)"/>
      <path d="M249,55.73c-11.72,0-22.29,1.22-29.88,3.12A36.08,36.08,0,0,0,210.2,62c-2,1.2-2.87,2.42-2.87,3.39v16c0,1,.86,2.19,2.87,3.38A35.67,35.67,0,0,0,219.12,88c7.59,1.91,18.16,3.13,29.88,3.13s22.29-1.22,29.88-3.13a35.67,35.67,0,0,0,8.92-3.19c2-1.19,2.87-2.42,2.87-3.38v-16c0-1-.86-2.19-2.87-3.39a36.08,36.08,0,0,0-8.92-3.19C271.29,57,260.72,55.73,249,55.73Zm0,2.08c11.54,0,22,1,29.3,2.87a32.68,32.68,0,0,1,8.2,3,6.91,6.91,0,0,1,2.08,1.69V81.51a6.91,6.91,0,0,1-2.08,1.69,33,33,0,0,1-8.2,3c-7.33,1.85-17.76,2.86-29.3,2.86s-22-1-29.3-2.86a33,33,0,0,1-8.2-3,6.91,6.91,0,0,1-2.08-1.69V65.36a6.91,6.91,0,0,1,2.08-1.69,32.68,32.68,0,0,1,8.2-3C227,58.83,237.46,57.81,249,57.81Z" transform="translate(0 0)" fill="url(#y)"/>
      <path d="M249,54.69c-23.59,0-42.71,4.79-42.71,10.71V81.47c0,5.92,19.12,10.72,42.71,10.72s42.71-4.8,42.71-10.72V65.4C291.71,59.48,272.58,54.69,249,54.69Z" transform="translate(0 0)" fill="none" stroke="#193965" stroke-width="0.38"/>
      <path d="M209.42,65.69v2.08c6.35,3.92,21.68,6.71,39.58,6.71s33.23-2.79,39.58-6.71V65.69C282.23,69.61,266.9,72.4,249,72.4S215.77,69.61,209.42,65.69Z" transform="translate(0 0)" fill="url(#z)"/>
    </g>
    <rect x="199" y="50" width="100" height="100" fill="none"/>
  </g>
  <line x1="166" y1="40" x2="166" y2="185" fill="none" stroke="gray" stroke-miterlimit="10"/>
  <line x1="333" y1="40" x2="333" y2="185" fill="none" stroke="gray" stroke-miterlimit="10"/>
</svg>
