<?xml version="1.0" encoding="UTF-8" standalone="no"?><svg xmlns="http://www.w3.org/2000/svg" xmlns:xlink="http://www.w3.org/1999/xlink" contentScriptType="application/ecmascript" contentStyleType="text/css" height="94px" preserveAspectRatio="none" style="width:346px;height:94px;" version="1.1" viewBox="0 0 346 94" width="346px" zoomAndPan="magnify"><defs><filter height="300%" id="fldza7qzjscgi" width="300%" x="-1" y="-1"><feGaussianBlur result="blurOut" stdDeviation="2.0"/><feColorMatrix in="blurOut" result="blurOut2" type="matrix" values="0 0 0 0 0 0 0 0 0 0 0 0 0 0 0 0 0 0 .4 0"/><feOffset dx="4.0" dy="4.0" in="blurOut2" result="blurOut3"/><feBlend in="SourceGraphic" in2="blurOut3" mode="normal"/></filter></defs><g><!--MD5=[163fd5c5262fc45089df088e668a9510]
class thermography--><rect fill="#FEFECE" filter="url(#fldza7qzjscgi)" height="75.6719" id="thermography" style="stroke: #A80036; stroke-width: 1.5;" width="149" x="6" y="8"/><ellipse cx="39.45" cy="24" fill="#FFAAAA" rx="11" ry="11" style="stroke: #A80036; stroke-width: 1.0;"/><path d="M40.3719,21.3906 L40.3719,28.0469 L41.5281,28.0469 Q42.1375,28.0469 42.3953,28.2813 Q42.6531,28.5156 42.6531,28.9063 Q42.6531,29.2813 42.3953,29.5156 Q42.1375,29.75 41.5281,29.75 L37.5438,29.75 Q36.9188,29.75 36.6609,29.5156 Q36.4031,29.2813 36.4031,28.8906 Q36.4031,28.5156 36.6609,28.2813 Q36.9188,28.0469 37.5438,28.0469 L38.6688,28.0469 L38.6688,21.3906 L36.825,21.3906 L36.825,23 Q36.825,23.6094 36.5906,23.875 Q36.3563,24.1406 35.9813,24.1406 Q35.6063,24.1406 35.3719,23.875 Q35.1375,23.6094 35.1375,23 L35.1375,19.6875 L43.95,19.6875 L43.95,23 Q43.95,23.6094 43.7078,23.875 Q43.4656,24.1406 43.0906,24.1406 Q42.7156,24.1406 42.4813,23.875 Q42.2469,23.6094 42.2469,23 L42.2469,21.3906 L40.3719,21.3906 Z "/><text fill="#000000" font-family="sans-serif" font-size="12" lengthAdjust="spacingAndGlyphs" textLength="76" x="57.55" y="28.9102">thermography</text><line style="stroke: #A80036; stroke-width: 1.5;" x1="7" x2="154" y1="40" y2="40"/><text fill="#000000" font-family="sans-serif" font-size="11" lengthAdjust="spacingAndGlyphs" textLength="118" x="12" y="55.4189">Almacena la informacion</text><text fill="#000000" font-family="sans-serif" font-size="11" lengthAdjust="spacingAndGlyphs" textLength="137" x="12" y="69.2549">y datos de los termogramas.</text><line style="stroke: #A80036; stroke-width: 1.5;" x1="7" x2="154" y1="75.6719" y2="75.6719"/><!--MD5=[24a0738ce47643a930934eeb9b073501]
class panel--><rect fill="#FEFECE" filter="url(#fldza7qzjscgi)" height="75.6719" id="panel" style="stroke: #A80036; stroke-width: 1.5;" width="130" x="205.5" y="8"/><ellipse cx="250.75" cy="24" fill="#FFAAAA" rx="11" ry="11" style="stroke: #A80036; stroke-width: 1.0;"/><path d="M251.6719,21.3906 L251.6719,28.0469 L252.8281,28.0469 Q253.4375,28.0469 253.6953,28.2813 Q253.9531,28.5156 253.9531,28.9063 Q253.9531,29.2813 253.6953,29.5156 Q253.4375,29.75 252.8281,29.75 L248.8438,29.75 Q248.2188,29.75 247.9609,29.5156 Q247.7031,29.2813 247.7031,28.8906 Q247.7031,28.5156 247.9609,28.2813 Q248.2188,28.0469 248.8438,28.0469 L249.9688,28.0469 L249.9688,21.3906 L248.125,21.3906 L248.125,23 Q248.125,23.6094 247.8906,23.875 Q247.6563,24.1406 247.2813,24.1406 Q246.9063,24.1406 246.6719,23.875 Q246.4375,23.6094 246.4375,23 L246.4375,19.6875 L255.25,19.6875 L255.25,23 Q255.25,23.6094 255.0078,23.875 Q254.7656,24.1406 254.3906,24.1406 Q254.0156,24.1406 253.7813,23.875 Q253.5469,23.6094 253.5469,23 L253.5469,21.3906 L251.6719,21.3906 Z "/><text fill="#000000" font-family="sans-serif" font-size="12" lengthAdjust="spacingAndGlyphs" textLength="31" x="271.25" y="28.9102">panel</text><line style="stroke: #A80036; stroke-width: 1.5;" x1="206.5" x2="334.5" y1="40" y2="40"/><text fill="#000000" font-family="sans-serif" font-size="11" lengthAdjust="spacingAndGlyphs" textLength="118" x="211.5" y="55.4189">Almacena la información</text><text fill="#000000" font-family="sans-serif" font-size="11" lengthAdjust="spacingAndGlyphs" textLength="112" x="211.5" y="69.2549">y datos de los paneles.</text><line style="stroke: #A80036; stroke-width: 1.5;" x1="206.5" x2="334.5" y1="75.6719" y2="75.6719"/><!--MD5=[923d93b7e13a10c551cca6514cc0e25c]
@startuml
skinparam nodesep 50
hide stereotypes
skinparam stereotypeC<< table >> {
  BackgroundColor #FFAAAA
}
skinparam spotChar<< table >> T

class thermography << table >> {
  Almacena la informacion
  y datos de los termogramas.
}

class panel << table >> {
  Almacena la información
  y datos de los paneles.
}

@enduml

PlantUML version 1.2020.06(Sun Apr 05 07:38:32 COT 2020)
(APACHE source distribution)
Java Runtime: Java(TM) SE Runtime Environment
JVM: Java HotSpot(TM) 64-Bit Server VM
Java Version: 1.8.0_261-b12
Operating System: Windows 10
Default Encoding: Cp1252
Language: es
Country: ES
--></g></svg>